<svg width="43" height="40" viewBox="0 0 43 40" fill="none" xmlns="http://www.w3.org/2000/svg">
<path fill-rule="evenodd" clip-rule="evenodd" d="M3.83888 32.69H5.47487V32.144H3.20687V35.23H5.54888V34.682H3.83888V33.885H5.34288V33.338H3.83888V32.69ZM7.85688 34.682L7.54688 34.39L7.87788 34.044L8.20487 34.349C8.28988 34.189 8.34587 33.976 8.34587 33.686C8.34587 32.822 7.85588 32.608 7.50888 32.608C7.15988 32.608 6.66988 32.823 6.66988 33.686C6.66988 34.55 7.15987 34.764 7.50787 34.764C7.62913 34.7653 7.74888 34.7371 7.85688 34.682ZM8.66788 34.787L9.00387 35.103L8.66388 35.453L8.29887 35.103C8.00688 35.277 7.68888 35.311 7.50888 35.311C7.09988 35.311 6.02588 35.135 6.02588 33.686C6.02588 32.239 7.09987 32.063 7.50787 32.063C7.91687 32.063 8.99088 32.238 8.99088 33.686C8.99088 34.194 8.85688 34.546 8.66788 34.787ZM10.7569 35.31C11.5339 35.31 12.0249 34.962 12.0249 34.15V32.144H11.3669V34.176C11.3669 34.55 11.1869 34.765 10.7439 34.765C10.4439 34.765 10.1939 34.577 10.1939 34.145V32.144H9.53687V34.189C9.54488 34.498 9.60988 34.749 9.77688 34.937C10.0519 35.242 10.4729 35.31 10.7569 35.31ZM13.7609 32.84H13.7509L13.3549 34.06H14.1429L13.7609 32.84ZM14.3229 34.592H13.1829L12.9689 35.23H12.2909L13.3909 32.144H14.1349L15.2209 35.23H14.5209L14.3229 34.592ZM17.9029 34.672H16.3679V32.144H15.7229V35.23H17.9029V34.671V34.672ZM20.3469 35.23V33.845H21.5499V35.23H22.1939V32.144H21.5499V33.312H20.3469V32.144H19.7029V35.23H20.3469ZM24.2599 32.608C23.9129 32.608 23.4229 32.823 23.4229 33.686C23.4229 34.55 23.9129 34.764 24.2599 34.764C24.6099 34.764 25.0999 34.55 25.0999 33.686C25.0999 32.822 24.6099 32.608 24.2599 32.608ZM24.2599 35.31C23.8539 35.31 22.7789 35.135 22.7789 33.686C22.7789 32.238 23.8539 32.063 24.2599 32.063C24.6699 32.063 25.7439 32.238 25.7439 33.686C25.7439 35.136 24.6699 35.31 24.2599 35.31ZM27.5529 35.31C28.3309 35.31 28.8209 34.962 28.8209 34.15V32.144H28.1639V34.176C28.1639 34.55 27.9839 34.765 27.5409 34.765C27.2389 34.765 26.9889 34.577 26.9889 34.145V32.144H26.3329V34.189C26.3409 34.498 26.4049 34.749 26.5729 34.937C26.8489 35.242 27.2689 35.31 27.5529 35.31ZM30.6549 34.778C30.0929 34.778 30.0069 34.451 30.0009 34.279H29.3839C29.3839 34.661 29.5769 35.311 30.7019 35.311C30.9729 35.311 31.9179 35.23 31.9179 34.301C31.9179 33.747 31.5319 33.574 31.1109 33.471L30.3579 33.286C30.2299 33.256 30.0329 33.206 30.0329 32.964C30.0329 32.685 30.3249 32.594 30.5689 32.594C31.1319 32.594 31.1839 32.922 31.2009 33.059H31.8209C31.8159 32.681 31.5629 32.063 30.6169 32.063C29.6159 32.063 29.4299 32.668 29.4299 33.013C29.4299 33.691 29.9089 33.802 30.4079 33.917H30.4109L30.7409 33.995C31.0679 34.072 31.3009 34.138 31.3009 34.377C31.3009 34.705 30.9599 34.777 30.6549 34.777V34.778ZM32.4479 35.23H33.0909V32.144H32.4479V35.23ZM36.2679 32.144H35.6659V34.293H35.6559L34.4319 32.143H33.7529V35.23H34.3539V33.028H34.3649L35.6229 35.23H36.2669V32.144H36.2679ZM39.7129 33.566H38.4249V34.086H39.1419C39.0099 34.709 38.5359 34.764 38.3939 34.764C37.9559 34.764 37.4959 34.546 37.4959 33.703C37.4959 32.913 37.9209 32.595 38.3819 32.595C38.8359 32.595 39.0559 32.982 39.0559 33.103H39.6999C39.6679 32.676 39.2929 32.063 38.3469 32.063C37.3079 32.058 36.8389 32.853 36.8389 33.695C36.8389 34.778 37.5139 35.31 38.2569 35.31C38.8129 35.31 39.0499 35.037 39.2129 34.85L39.2189 34.843L39.2839 35.23H39.7129V33.566ZM4.55187 37.295C4.20387 37.295 3.71487 37.51 3.71487 38.374C3.71487 39.237 4.20487 39.454 4.55187 39.454C4.89987 39.454 5.38988 39.237 5.38988 38.374C5.38988 37.51 4.89987 37.294 4.55187 37.294V37.295ZM4.55187 40C4.14387 40 3.06988 39.822 3.06988 38.374C3.06988 36.926 4.14487 36.75 4.55187 36.75C4.95988 36.75 6.03387 36.926 6.03387 38.374C6.03487 39.822 4.95988 40 4.55187 40ZM7.80088 37.363V38.27H8.39787C8.87887 38.27 8.87887 37.927 8.87887 37.79C8.87887 37.489 8.71088 37.363 8.31188 37.363H7.80088ZM8.53888 38.804H7.80088V39.917H7.15488V36.831H8.56488C9.16288 36.831 9.52287 37.214 9.52287 37.82C9.52287 38.099 9.36888 38.804 8.53888 38.804ZM11.2719 37.363V38.27H11.8699C12.3499 38.27 12.3499 37.927 12.3499 37.79C12.3499 37.489 12.1819 37.363 11.7829 37.363H11.2729H11.2719ZM12.0119 38.804H11.2719V39.917H10.6279V36.831H12.0379C12.6349 36.831 12.9959 37.214 12.9959 37.82C12.9959 38.099 12.8399 38.804 12.0109 38.804H12.0119ZM15.4449 37.294C15.0949 37.294 14.6069 37.51 14.6069 38.374C14.6069 39.237 15.0959 39.454 15.4449 39.454C15.7919 39.454 16.2829 39.237 16.2829 38.374C16.2829 37.51 15.7919 37.294 15.4449 37.294ZM15.4449 40C15.0359 40 13.9629 39.822 13.9629 38.374C13.9629 36.926 15.0359 36.75 15.4449 36.75C15.8529 36.75 16.9269 36.926 16.9269 38.374C16.9269 39.822 15.8519 40 15.4449 40ZM18.6809 37.363V38.189H19.4359C19.7719 38.189 19.9339 38.073 19.9339 37.768C19.9339 37.605 19.8619 37.363 19.4839 37.363H18.6809ZM18.6809 39.918H18.0479V36.832H19.6079C20.4289 36.832 20.5779 37.437 20.5779 37.704C20.5779 38.044 20.4079 38.336 20.1029 38.438C20.3559 38.55 20.4929 38.644 20.4929 39.222C20.4929 39.672 20.4929 39.783 20.6309 39.834V39.918H19.9169C19.8739 39.77 19.8499 39.611 19.8499 39.294C19.8499 38.873 19.8229 38.71 19.3459 38.71H18.6809V39.918ZM22.3359 39.918H22.9799V37.378H23.9129V36.831H21.4049V37.377H22.3369V39.917L22.3359 39.918ZM26.1049 40C26.8839 40 27.3729 39.65 27.3729 38.838V36.83H26.7159V38.863C26.7159 39.236 26.5359 39.453 26.0929 39.453C25.7929 39.453 25.5429 39.262 25.5429 38.833V36.83H24.8869V38.876C24.8939 39.185 24.9589 39.434 25.1269 39.623C25.4019 39.927 25.8229 39.999 26.1049 39.999V40ZM31.0949 36.831H30.4919V38.979H30.4849L29.2589 36.831H28.5799V39.918H29.1829V37.716H29.1899L30.4499 39.918H31.0949V36.83V36.831ZM32.2669 39.918H32.9129V36.83H32.2669V39.917V39.918ZM34.7849 39.918H35.4299V37.378H36.3629V36.831H33.8549V37.377H34.7849V39.917V39.918ZM38.1539 39.918H38.7989V38.76L39.8309 36.831H39.1009L38.4889 38.173L37.8489 36.831H37.0889L38.1539 38.752V39.918ZM0.671875 10.232L21.4469 0L42.5319 10.232V15.038H39.7399V29.456H2.99688V15.038H0.671875V10.232ZM7.49288 25.114H35.2439V11.937L21.4469 4.807L7.49288 11.937V25.114ZM14.9349 16.587H27.8019V11.937H14.9349V16.587ZM14.9349 23.257H27.8019V18.604H14.9349V23.257Z" fill="#6F7672"/>
</svg>
