<svg width="41" height="40" viewBox="0 0 41 40" fill="none" xmlns="http://www.w3.org/2000/svg">
<path fill-rule="evenodd" clip-rule="evenodd" d="M33.0519 25.681H8.24487V11.733L20.7849 4.31696L33.0529 11.733V25.681H33.0519ZM20.7849 0.105957L1.29688 11.287V15.327H4.28287V29.22H36.7989V15.328H39.8389V11.398L20.7849 0.105957Z" fill="#6F7672"/>
<path fill-rule="evenodd" clip-rule="evenodd" d="M14.1098 17.0448H27.0838V13.6128H14.1098V17.0448ZM14.1098 22.1558H27.0838V18.7238H14.1098V22.1558ZM23.3448 38.9318H22.3678V36.4418H23.4538C24.2138 36.4418 24.9198 36.8838 24.9198 37.7698C24.9198 38.7658 24.2678 38.9318 23.3448 38.9318ZM23.4548 35.5018H21.1748V39.8748H23.3998C25.1898 39.8748 26.2218 39.4868 26.2218 37.7718C26.2218 36.0008 25.0818 35.5018 23.4538 35.5018H23.4548ZM35.9998 37.1118H34.2618V36.4478H36.0528C36.5418 36.4478 36.7588 36.5028 36.7588 36.7798C36.7588 37.1118 36.5958 37.1118 35.9988 37.1118H35.9998ZM36.7098 38.0478C37.5238 37.9378 37.9048 37.6048 37.9048 36.8858C37.9048 35.8898 37.4148 35.5018 36.2218 35.5018H33.0728V39.8748H34.2668V38.0478H35.4068L36.6558 39.8748H37.9588L36.7098 38.0478ZM14.6298 35.5018V39.8748H15.7698V37.2178L18.0498 39.8748H19.4068V35.5018H18.2668V38.2138L15.9868 35.5018H14.6298ZM3.43781 35.5018V39.8748H7.72581V38.9338L4.63181 38.8788V35.5018H3.43781ZM8.95381 39.8748H13.1338V38.9338H10.2028V37.9928H12.6458V37.1068H10.2028V36.4428H13.1338V35.5028H8.95381V39.8748ZM27.5598 35.5018V39.8748L31.6848 39.8198V38.9338H28.7538V37.9928H31.2508V37.1068H28.7538V36.4428H31.6848V35.5028H27.5598V35.5018ZM13.1448 32.8868L13.4698 31.3368L13.8498 32.8868H13.1448ZM13.9548 30.4958H13.0318L11.9458 34.4258H12.7368L12.9768 33.5398H13.9538L14.1938 34.4258H15.0398L13.9548 30.4958ZM7.68081 32.9868C7.68081 33.7068 7.62681 33.8718 7.19181 33.8718C6.81181 33.8718 6.70381 33.6508 6.70381 32.9318V31.9898C6.70381 31.2698 6.75781 31.0498 7.24681 31.0498C7.62681 31.0498 7.68081 31.1598 7.68081 31.9348V32.9868ZM8.28081 33.8728C8.44381 33.5408 8.49881 33.3198 8.49881 32.8218V31.9918C8.49881 31.0498 8.28181 30.3858 7.19581 30.3858C6.21881 30.3858 5.89281 30.9398 5.89281 31.9358V32.9878C5.89281 34.3158 6.65281 34.3708 8.87881 34.3708L8.93281 34.0948L8.28181 33.8728H8.28081ZM28.0428 33.3738C28.0428 33.9828 28.4228 34.4808 29.2908 34.4808C29.9968 34.4808 30.6478 33.9828 30.6478 33.3738C30.6478 32.4328 28.9108 31.9898 28.9108 31.3808C28.9108 31.1598 29.1278 31.0488 29.3448 31.0488C29.6708 31.0488 29.8338 31.2698 29.9968 31.6028L30.5388 31.3808C30.4848 30.8278 30.1048 30.3848 29.2908 30.3848C28.6398 30.3848 28.0968 30.7168 28.0968 31.3808C28.0968 32.4878 29.8338 32.7648 29.8338 33.4838C29.8338 33.7608 29.6708 33.8718 29.3448 33.8718C29.0198 33.8718 28.8018 33.6508 28.6938 33.2628L28.0428 33.3728V33.3738ZM23.9458 32.9858C23.9458 33.6508 23.7828 33.8718 23.4578 33.8718C23.0238 33.8718 22.9688 33.5948 22.9688 33.0418V31.8238C22.9688 31.3258 23.0238 30.9938 23.4578 30.9938C23.8918 30.9938 23.9458 31.3818 23.9458 31.8238V32.9858ZM23.4598 30.3848C22.6458 30.3848 22.1568 30.8278 22.1568 31.8788V33.1518C22.1568 34.0928 22.4278 34.4808 23.4598 34.4808C24.4908 34.4808 24.7628 34.0378 24.7628 32.9858V31.7698C24.7628 30.7728 24.4908 30.3858 23.4598 30.3858V30.3848ZM35.2998 32.9858C35.2998 34.1488 35.6248 34.4808 36.7098 34.4808C37.5508 34.4808 37.7968 34.0788 37.7968 33.6508V32.3778H36.6568V32.9858H37.0368V33.4288C37.0368 33.7608 36.9278 33.9268 36.6568 33.9268C36.1138 33.9268 36.0588 33.5398 36.0588 32.9868V32.0998C36.0588 31.4358 36.1138 30.9928 36.6568 30.9928C37.0368 30.9928 37.2538 31.2688 37.3068 31.6568L37.8508 31.4358C37.7968 30.7708 37.3618 30.3838 36.6018 30.3838C35.5168 30.3838 35.2998 30.9918 35.2998 31.8228V32.9848V32.9858ZM25.1018 30.4948V32.7648C25.1018 34.0928 25.3248 34.5178 26.4648 34.5178C27.3338 34.5178 27.6528 34.0378 27.6528 32.8748V30.4948H26.8928V32.7648C26.8928 33.6498 26.8388 33.8708 26.4048 33.8708C25.9708 33.8708 25.9158 33.5388 25.9158 32.7088V30.4948H25.1018ZM32.3548 30.4958V34.4258H33.0048V31.7688L33.9288 34.4258H34.9058V30.4958H34.2538V32.9308L33.3858 30.4958H32.3538H32.3548ZM9.27981 30.4948V32.8748C9.27981 33.9818 9.38781 34.4808 10.4738 34.4808C11.7218 34.4808 11.7768 33.8708 11.7768 32.7648V30.4948H11.0168V32.8198C11.0168 33.5948 10.9078 33.8158 10.5278 33.8158C10.0938 33.8158 10.0388 33.5948 10.0388 32.7088V30.4948H9.27881H9.27981ZM19.1518 30.4958V34.4258H19.9118V32.6538H20.8348V34.4248H21.5948V30.4948H20.8348V31.9898H19.9118V30.4958H19.1518ZM3.38281 30.4958V34.4258H5.33681V33.8158H4.14281V32.7098H5.22781V32.1558H4.14281V31.1048H5.33681V30.4948H3.38281V30.4958ZM15.3838 30.4958V34.4258H17.1758V33.8158H16.0358V30.4958H15.3838ZM31.0468 34.4248H31.7528V30.4948H31.0468V34.4248Z" fill="#6F7672"/>
</svg>
