<svg width="174" height="174" viewBox="0 0 174 174" fill="none" xmlns="http://www.w3.org/2000/svg">
<rect width="174" height="174" rx="87" fill="#BE2530"/>
<path fill-rule="evenodd" clip-rule="evenodd" d="M51.6893 103.768V32.0687C33.5024 43.6162 21.4326 63.9354 21.4326 87.0736C21.4326 92.8445 22.1834 98.4401 23.5927 103.768H51.6893ZM51.6893 130.479H38.0112C49.933 143.799 67.258 152.182 86.5409 152.182C105.824 152.182 123.149 143.799 135.071 130.479H120.577V130.479H94.6777V22.4689C92.0121 22.1365 89.2965 21.9653 86.5409 21.9653C83.784 21.9653 81.0671 22.1367 78.4004 22.4693V130.479H51.6893V130.479ZM149.269 104.58C150.82 99.0094 151.649 93.1383 151.649 87.0736C151.649 63.5914 139.218 43.0126 120.577 31.5595V104.58H149.269Z" fill="white"/>
</svg>
