<svg width="16" height="18" viewBox="0 0 16 18" fill="none" xmlns="http://www.w3.org/2000/svg">
<path d="M13 12.4C12.3667 12.4 11.8 12.65 11.3667 13.0417L5.425 9.58334C5.46667 9.39167 5.5 9.20001 5.5 9.00001C5.5 8.80001 5.46667 8.60834 5.425 8.41667L11.3 4.99167C11.75 5.40834 12.3417 5.66667 13 5.66667C14.3833 5.66667 15.5 4.55001 15.5 3.16667C15.5 1.78334 14.3833 0.666672 13 0.666672C11.6167 0.666672 10.5 1.78334 10.5 3.16667C10.5 3.36667 10.5333 3.55834 10.575 3.75001L4.7 7.17501C4.25 6.75834 3.65833 6.50001 3 6.50001C1.61667 6.50001 0.5 7.61667 0.5 9.00001C0.5 10.3833 1.61667 11.5 3 11.5C3.65833 11.5 4.25 11.2417 4.7 10.825L10.6333 14.2917C10.5917 14.4667 10.5667 14.65 10.5667 14.8333C10.5667 16.175 11.6583 17.2667 13 17.2667C14.3417 17.2667 15.4333 16.175 15.4333 14.8333C15.4333 13.4917 14.3417 12.4 13 12.4Z" fill="#151516"/>
</svg>
