<svg width="62" height="55" viewBox="0 0 62 55" fill="none" xmlns="http://www.w3.org/2000/svg">
<path d="M19.6655 21.6763V24.8529V53.9354C19.6655 54.477 19.2374 54.9203 18.6959 54.9329C12.5607 55.0762 2.24074 55.0891 0.850331 53.9309C-0.160877 53.0886 -0.0681094 51.68 0.117271 50.7543C1.66484 43.0165 5.00434 27.7851 5.98175 24.8529C6.95916 21.9206 8.9141 21.6763 9.8914 21.6763H19.6655Z" fill="#BE2530"/>
<path d="M19.666 24.8529V40.0028V52.4648H23.9644C24.0293 52.4648 24.092 52.4864 24.1459 52.5225C24.9718 53.0768 26.7847 53.4422 27.7297 53.4422C36.3635 53.4422 52.8113 53.525 54.1198 53.1978C55.5215 52.8474 56.8077 52.2204 58.0295 50.2656C58.9773 48.7491 58.7762 45.5782 58.5404 44.0506C58.5268 43.9628 58.5516 43.874 58.6079 43.8053C59.1226 43.1777 60.0445 41.841 60.2287 40.7358C60.4958 39.1327 60.0476 37.8158 59.7891 36.9862C59.7581 36.8869 59.7833 36.7785 59.8498 36.6984C61.6574 34.524 60.7127 31.9203 60.473 30.9617C60.3007 30.2724 60.3689 29.9123 60.4433 29.7808C60.4598 29.7515 60.481 29.7234 60.4956 29.6931C62.5279 25.4506 61.5773 22.9595 60.1861 21.7445C59.3654 21.0276 58.2075 20.9611 57.1181 20.991C51.5551 21.144 42.9471 21.2969 43.1239 20.9432C43.3683 20.4545 44.5901 10.6804 44.1013 8.4812C43.4809 5.68922 43.0709 4.4761 41.9022 2.37235C40.6804 0.173173 38.2369 -0.315534 35.3046 0.173173C32.9588 0.564138 32.3724 2.94251 32.3724 4.08283V11.001C32.3724 11.5888 32.1997 12.1636 31.8758 12.6541L25.0059 23.0571C24.2655 24.1783 23.0116 24.8529 21.668 24.8529H19.666Z" fill="#FBBEA5"/>
<mask id="mask0_27_2665" style="mask-type:alpha" maskUnits="userSpaceOnUse" x="19" y="0" width="43" height="54">
<path d="M19.665 24.8529V40.0028V52.4648H23.9634C24.0283 52.4648 24.091 52.4864 24.1449 52.5225C24.9708 53.0768 26.7837 53.4422 27.7287 53.4422C36.3625 53.4422 52.8103 53.525 54.1189 53.1978C55.5205 52.8474 56.8067 52.2204 58.0285 50.2656C58.9763 48.7491 58.7752 45.5782 58.5394 44.0506C58.5258 43.9628 58.5506 43.874 58.6069 43.8053C59.1216 43.1777 60.0435 41.841 60.2277 40.7358C60.4949 39.1327 60.0466 37.8158 59.7881 36.9862C59.7571 36.8869 59.7823 36.7785 59.8488 36.6984C61.6564 34.524 60.7117 31.9203 60.472 30.9617C60.2997 30.2724 60.3679 29.9123 60.4423 29.7808C60.4588 29.7515 60.48 29.7234 60.4946 29.6931C62.5269 25.4506 61.5763 22.9595 60.1852 21.7445C59.3644 21.0276 58.2065 20.9611 57.1172 20.991C51.5541 21.144 42.9461 21.2969 43.123 20.9432C43.3673 20.4545 44.5891 10.6804 44.1004 8.4812C43.4799 5.68922 43.0699 4.4761 41.9012 2.37235C40.6794 0.173173 38.2359 -0.315534 35.3037 0.173173C32.9579 0.564138 32.3714 2.94251 32.3714 4.08283V11.001C32.3714 11.5888 32.1987 12.1636 31.8748 12.6541L25.0049 23.0571C24.2645 24.1783 23.0107 24.8529 21.6671 24.8529H19.665Z" fill="#FBBEA5"/>
</mask>
<g mask="url(#mask0_27_2665)">
<rect x="19.665" y="40.2471" width="41.0514" height="13.6838" fill="#FCAD8F"/>
</g>
<mask id="mask1_27_2665" style="mask-type:alpha" maskUnits="userSpaceOnUse" x="0" y="21" width="20" height="34">
<path d="M19.6655 21.6763V24.8529V53.9354C19.6655 54.477 19.2374 54.9203 18.6959 54.9329C12.5607 55.0762 2.24074 55.0891 0.850331 53.9309C-0.160877 53.0886 -0.0681094 51.68 0.117271 50.7543C1.66484 43.0165 5.00434 27.7851 5.98175 24.8529C6.95916 21.9206 8.9141 21.6763 9.8914 21.6763H19.6655Z" fill="#BE2530"/>
</mask>
<g mask="url(#mask1_27_2665)">
<rect x="-5.25781" y="40.2471" width="24.924" height="16.1273" fill="#9C1E27"/>
</g>
</svg>
